<?xml version="1.0" encoding="UTF-8"?>
<svg xmlns="http://www.w3.org/2000/svg" version="1.1" width="200" height="200" viewBox="0 0 200 200"><rect x="0" y="0" width="200" height="200" fill="#ffffff"/><g transform="scale(6.061)"><g transform="translate(0,0)"><path fill-rule="evenodd" d="M9 0L9 1L8 1L8 2L9 2L9 3L8 3L8 4L10 4L10 7L11 7L11 4L12 4L12 5L13 5L13 4L14 4L14 5L15 5L15 6L14 6L14 7L15 7L15 8L16 8L16 9L18 9L18 8L16 8L16 7L17 7L17 6L16 6L16 5L15 5L15 4L18 4L18 5L20 5L20 7L21 7L21 8L22 8L22 9L23 9L23 10L22 10L22 11L21 11L21 9L19 9L19 10L20 10L20 11L18 11L18 12L16 12L16 11L17 11L17 10L15 10L15 9L14 9L14 8L13 8L13 6L12 6L12 9L13 9L13 10L11 10L11 11L10 11L10 9L11 9L11 8L6 8L6 9L7 9L7 10L5 10L5 8L0 8L0 15L2 15L2 16L1 16L1 17L2 17L2 16L3 16L3 15L4 15L4 17L5 17L5 18L6 18L6 19L5 19L5 20L4 20L4 18L2 18L2 19L1 19L1 18L0 18L0 19L1 19L1 20L0 20L0 25L1 25L1 22L2 22L2 23L5 23L5 24L3 24L3 25L8 25L8 27L9 27L9 28L8 28L8 33L10 33L10 32L9 32L9 31L10 31L10 27L11 27L11 29L12 29L12 30L13 30L13 31L12 31L12 33L13 33L13 32L14 32L14 33L19 33L19 30L20 30L20 32L22 32L22 33L23 33L23 32L24 32L24 33L25 33L25 32L26 32L26 31L28 31L28 32L29 32L29 33L30 33L30 32L31 32L31 33L32 33L32 32L31 32L31 30L33 30L33 27L32 27L32 26L33 26L33 24L32 24L32 26L31 26L31 25L30 25L30 24L31 24L31 23L32 23L32 22L33 22L33 21L32 21L32 20L31 20L31 19L32 19L32 18L33 18L33 17L32 17L32 16L31 16L31 15L32 15L32 14L33 14L33 13L31 13L31 15L30 15L30 13L29 13L29 12L28 12L28 13L24 13L24 12L26 12L26 11L28 11L28 8L27 8L27 9L26 9L26 8L24 8L24 7L25 7L25 5L24 5L24 4L25 4L25 3L24 3L24 2L25 2L25 1L24 1L24 0L23 0L23 1L22 1L22 0L19 0L19 1L17 1L17 2L19 2L19 3L20 3L20 4L18 4L18 3L15 3L15 4L14 4L14 3L13 3L13 4L12 4L12 2L13 2L13 1L11 1L11 2L10 2L10 0ZM14 0L14 2L16 2L16 1L15 1L15 0ZM19 1L19 2L20 2L20 3L21 3L21 4L22 4L22 3L21 3L21 2L22 2L22 1L21 1L21 2L20 2L20 1ZM23 1L23 2L24 2L24 1ZM10 3L10 4L11 4L11 3ZM8 5L8 7L9 7L9 5ZM21 5L21 7L22 7L22 8L23 8L23 7L24 7L24 5ZM15 6L15 7L16 7L16 6ZM18 6L18 7L19 7L19 6ZM22 6L22 7L23 7L23 6ZM29 8L29 9L30 9L30 8ZM31 8L31 10L33 10L33 9L32 9L32 8ZM1 9L1 10L2 10L2 9ZM25 9L25 10L26 10L26 9ZM4 10L4 11L5 11L5 10ZM7 10L7 11L6 11L6 12L7 12L7 11L9 11L9 10ZM13 10L13 11L12 11L12 13L11 13L11 12L10 12L10 13L9 13L9 12L8 12L8 13L5 13L5 12L4 12L4 13L1 13L1 14L2 14L2 15L3 15L3 14L8 14L8 15L5 15L5 17L6 17L6 18L7 18L7 17L8 17L8 18L9 18L9 20L7 20L7 19L6 19L6 20L5 20L5 21L2 21L2 22L5 22L5 23L6 23L6 24L10 24L10 25L11 25L11 26L13 26L13 27L12 27L12 29L15 29L15 30L19 30L19 29L15 29L15 28L14 28L14 27L15 27L15 26L16 26L16 28L19 28L19 27L22 27L22 28L20 28L20 30L21 30L21 29L22 29L22 30L23 30L23 29L24 29L24 27L23 27L23 26L24 26L24 25L23 25L23 26L19 26L19 27L18 27L18 26L17 26L17 25L22 25L22 24L25 24L25 22L26 22L26 21L28 21L28 22L27 22L27 23L26 23L26 24L28 24L28 23L29 23L29 24L30 24L30 23L31 23L31 22L30 22L30 21L31 21L31 20L30 20L30 19L31 19L31 16L30 16L30 15L29 15L29 13L28 13L28 14L25 14L25 15L24 15L24 14L23 14L23 13L22 13L22 12L20 12L20 14L19 14L19 12L18 12L18 13L15 13L15 12L14 12L14 11L15 11L15 10ZM23 10L23 12L24 12L24 10ZM30 11L30 12L31 12L31 11ZM10 13L10 14L11 14L11 13ZM12 13L12 14L13 14L13 15L12 15L12 17L13 17L13 16L14 16L14 17L15 17L15 16L16 16L16 17L17 17L17 18L15 18L15 19L14 19L14 20L15 20L15 21L12 21L12 19L13 19L13 18L11 18L11 17L10 17L10 16L9 16L9 15L8 15L8 17L10 17L10 18L11 18L11 19L10 19L10 20L9 20L9 21L8 21L8 22L6 22L6 23L10 23L10 24L11 24L11 21L12 21L12 22L13 22L13 23L12 23L12 25L13 25L13 24L14 24L14 25L17 25L17 24L14 24L14 23L17 23L17 22L15 22L15 21L17 21L17 20L16 20L16 19L18 19L18 18L21 18L21 20L20 20L20 21L18 21L18 23L19 23L19 22L20 22L20 23L21 23L21 24L22 24L22 23L23 23L23 22L25 22L25 21L23 21L23 18L28 18L28 17L29 17L29 19L30 19L30 17L29 17L29 16L28 16L28 15L27 15L27 16L28 16L28 17L23 17L23 18L21 18L21 16L24 16L24 15L21 15L21 16L20 16L20 17L19 17L19 16L16 16L16 15L19 15L19 14L14 14L14 13ZM14 15L14 16L15 16L15 15ZM25 15L25 16L26 16L26 15ZM6 16L6 17L7 17L7 16ZM2 19L2 20L3 20L3 19ZM24 19L24 20L25 20L25 19ZM27 19L27 20L28 20L28 21L30 21L30 20L28 20L28 19ZM6 20L6 21L7 21L7 20ZM21 20L21 21L22 21L22 22L21 22L21 23L22 23L22 22L23 22L23 21L22 21L22 20ZM29 22L29 23L30 23L30 22ZM25 25L25 28L28 28L28 25ZM29 25L29 27L31 27L31 28L29 28L29 29L31 29L31 28L32 28L32 27L31 27L31 26L30 26L30 25ZM9 26L9 27L10 27L10 26ZM26 26L26 27L27 27L27 26ZM22 28L22 29L23 29L23 28ZM25 29L25 30L27 30L27 29ZM28 30L28 31L29 31L29 32L30 32L30 30ZM14 31L14 32L15 32L15 31ZM17 31L17 32L18 32L18 31ZM24 31L24 32L25 32L25 31ZM0 0L0 7L7 7L7 0ZM1 1L1 6L6 6L6 1ZM2 2L2 5L5 5L5 2ZM26 0L26 7L33 7L33 0ZM27 1L27 6L32 6L32 1ZM28 2L28 5L31 5L31 2ZM0 26L0 33L7 33L7 26ZM1 27L1 32L6 32L6 27ZM2 28L2 31L5 31L5 28Z" fill="#000000"/></g></g></svg>
