<?xml version="1.0" encoding="UTF-8"?>
<svg xmlns="http://www.w3.org/2000/svg" version="1.1" width="200" height="200" viewBox="0 0 200 200"><rect x="0" y="0" width="200" height="200" fill="#ffffff"/><g transform="scale(6.061)"><g transform="translate(0,0)"><path fill-rule="evenodd" d="M8 0L8 4L9 4L9 5L8 5L8 7L9 7L9 6L10 6L10 9L11 9L11 8L12 8L12 9L13 9L13 10L14 10L14 9L15 9L15 12L13 12L13 11L12 11L12 12L11 12L11 13L10 13L10 15L9 15L9 13L8 13L8 14L6 14L6 15L5 15L5 13L7 13L7 12L5 12L5 10L6 10L6 11L8 11L8 12L10 12L10 11L11 11L11 10L9 10L9 9L7 9L7 8L4 8L4 9L2 9L2 8L0 8L0 9L2 9L2 11L4 11L4 12L3 12L3 14L4 14L4 15L5 15L5 18L4 18L4 16L3 16L3 15L2 15L2 14L0 14L0 17L1 17L1 18L0 18L0 19L1 19L1 20L0 20L0 22L1 22L1 20L2 20L2 24L0 24L0 25L2 25L2 24L3 24L3 22L4 22L4 24L5 24L5 25L7 25L7 24L5 24L5 23L8 23L8 24L9 24L9 23L8 23L8 22L11 22L11 24L12 24L12 25L13 25L13 26L15 26L15 27L14 27L14 28L13 28L13 27L12 27L12 28L11 28L11 29L10 29L10 30L9 30L9 31L8 31L8 33L11 33L11 32L12 32L12 33L14 33L14 31L15 31L15 32L16 32L16 33L23 33L23 32L22 32L22 30L21 30L21 29L23 29L23 30L25 30L25 31L24 31L24 33L28 33L28 32L26 32L26 31L29 31L29 33L30 33L30 30L31 30L31 29L29 29L29 27L32 27L32 28L33 28L33 27L32 27L32 24L31 24L31 25L30 25L30 23L32 23L32 22L31 22L31 21L30 21L30 19L32 19L32 18L30 18L30 17L29 17L29 16L30 16L30 15L32 15L32 14L30 14L30 13L29 13L29 12L30 12L30 11L31 11L31 10L26 10L26 9L25 9L25 5L24 5L24 4L22 4L22 5L21 5L21 6L20 6L20 5L19 5L19 3L20 3L20 4L21 4L21 3L22 3L22 2L23 2L23 1L24 1L24 3L25 3L25 1L24 1L24 0L23 0L23 1L21 1L21 3L20 3L20 1L17 1L17 2L16 2L16 3L15 3L15 5L14 5L14 3L13 3L13 2L14 2L14 0L13 0L13 1L11 1L11 2L12 2L12 5L13 5L13 6L12 6L12 7L11 7L11 3L10 3L10 2L9 2L9 0ZM15 0L15 1L16 1L16 0ZM16 3L16 5L15 5L15 7L14 7L14 6L13 6L13 7L12 7L12 8L13 8L13 9L14 9L14 8L15 8L15 7L16 7L16 6L17 6L17 7L18 7L18 6L19 6L19 8L18 8L18 9L16 9L16 11L17 11L17 10L19 10L19 11L18 11L18 13L16 13L16 12L15 12L15 13L16 13L16 15L19 15L19 16L20 16L20 17L19 17L19 20L17 20L17 21L16 21L16 20L15 20L15 21L13 21L13 20L14 20L14 19L15 19L15 18L13 18L13 17L12 17L12 16L13 16L13 15L12 15L12 16L9 16L9 15L8 15L8 16L7 16L7 15L6 15L6 16L7 16L7 17L6 17L6 18L8 18L8 19L6 19L6 20L5 20L5 21L4 21L4 18L3 18L3 16L2 16L2 19L3 19L3 21L4 21L4 22L8 22L8 19L9 19L9 21L11 21L11 22L12 22L12 21L13 21L13 22L15 22L15 21L16 21L16 23L14 23L14 25L16 25L16 26L17 26L17 25L19 25L19 26L18 26L18 27L22 27L22 25L19 25L19 24L21 24L21 23L23 23L23 21L25 21L25 20L27 20L27 19L28 19L28 18L29 18L29 19L30 19L30 18L29 18L29 17L25 17L25 16L24 16L24 15L26 15L26 16L27 16L27 15L28 15L28 14L29 14L29 15L30 15L30 14L29 14L29 13L25 13L25 10L24 10L24 13L25 13L25 14L24 14L24 15L22 15L22 14L23 14L23 13L22 13L22 14L20 14L20 12L19 12L19 11L20 11L20 10L21 10L21 11L22 11L22 12L23 12L23 9L22 9L22 10L21 10L21 9L19 9L19 8L21 8L21 7L22 7L22 6L23 6L23 8L24 8L24 5L22 5L22 6L21 6L21 7L20 7L20 6L19 6L19 5L18 5L18 3ZM27 8L27 9L28 9L28 8ZM29 8L29 9L33 9L33 8ZM4 9L4 10L5 10L5 9ZM6 9L6 10L7 10L7 9ZM26 11L26 12L28 12L28 11ZM0 12L0 13L1 13L1 12ZM4 12L4 13L5 13L5 12ZM12 12L12 13L11 13L11 14L12 14L12 13L13 13L13 14L14 14L14 13L13 13L13 12ZM31 12L31 13L33 13L33 12ZM14 15L14 17L15 17L15 15ZM21 15L21 21L23 21L23 20L24 20L24 19L25 19L25 17L23 17L23 20L22 20L22 15ZM8 16L8 17L9 17L9 19L11 19L11 18L10 18L10 17L9 17L9 16ZM32 16L32 17L33 17L33 16ZM16 17L16 19L18 19L18 18L17 18L17 17ZM12 19L12 20L11 20L11 21L12 21L12 20L13 20L13 19ZM6 20L6 21L7 21L7 20ZM19 20L19 21L18 21L18 22L17 22L17 23L16 23L16 25L17 25L17 24L19 24L19 23L18 23L18 22L19 22L19 21L20 21L20 20ZM32 20L32 21L33 21L33 20ZM26 21L26 22L27 22L27 23L26 23L26 24L29 24L29 23L30 23L30 21ZM20 22L20 23L21 23L21 22ZM28 22L28 23L29 23L29 22ZM12 23L12 24L13 24L13 23ZM8 25L8 26L9 26L9 25ZM10 25L10 27L8 27L8 29L9 29L9 28L10 28L10 27L11 27L11 25ZM23 25L23 27L24 27L24 25ZM25 25L25 28L28 28L28 25ZM29 25L29 26L30 26L30 25ZM26 26L26 27L27 27L27 26ZM12 28L12 29L11 29L11 30L10 30L10 31L11 31L11 30L12 30L12 29L13 29L13 30L15 30L15 29L16 29L16 32L17 32L17 31L18 31L18 32L20 32L20 28L19 28L19 29L16 29L16 28L15 28L15 29L13 29L13 28ZM23 28L23 29L24 29L24 28ZM27 29L27 30L28 30L28 29ZM12 31L12 32L13 32L13 31ZM32 32L32 33L33 33L33 32ZM0 0L0 7L7 7L7 0ZM1 1L1 6L6 6L6 1ZM2 2L2 5L5 5L5 2ZM26 0L26 7L33 7L33 0ZM27 1L27 6L32 6L32 1ZM28 2L28 5L31 5L31 2ZM0 26L0 33L7 33L7 26ZM1 27L1 32L6 32L6 27ZM2 28L2 31L5 31L5 28Z" fill="#000000"/></g></g></svg>
