<?xml version="1.0" encoding="UTF-8"?>
<svg xmlns="http://www.w3.org/2000/svg" version="1.1" width="200" height="200" viewBox="0 0 200 200"><rect x="0" y="0" width="200" height="200" fill="#ffffff"/><g transform="scale(6.897)"><g transform="translate(0,0)"><path fill-rule="evenodd" d="M9 0L9 1L8 1L8 2L9 2L9 3L8 3L8 4L10 4L10 7L11 7L11 4L12 4L12 5L13 5L13 6L12 6L12 9L14 9L14 10L15 10L15 11L14 11L14 12L13 12L13 13L12 13L12 11L13 11L13 10L11 10L11 11L10 11L10 9L11 9L11 8L6 8L6 9L5 9L5 8L0 8L0 9L2 9L2 10L0 10L0 15L3 15L3 14L4 14L4 15L5 15L5 16L3 16L3 17L2 17L2 19L3 19L3 20L2 20L2 21L5 21L5 20L6 20L6 21L7 21L7 20L6 20L6 19L7 19L7 18L6 18L6 17L9 17L9 16L11 16L11 15L10 15L10 14L11 14L11 13L12 13L12 14L13 14L13 15L12 15L12 17L14 17L14 18L15 18L15 19L16 19L16 18L15 18L15 17L18 17L18 16L17 16L17 14L15 14L15 13L18 13L18 14L20 14L20 13L22 13L22 14L21 14L21 16L20 16L20 17L19 17L19 18L20 18L20 17L21 17L21 18L22 18L22 19L21 19L21 20L19 20L19 19L18 19L18 20L15 20L15 21L14 21L14 20L13 20L13 21L12 21L12 19L13 19L13 18L11 18L11 19L10 19L10 18L9 18L9 19L8 19L8 20L9 20L9 21L8 21L8 23L11 23L11 21L12 21L12 22L13 22L13 23L12 23L12 25L14 25L14 26L15 26L15 27L14 27L14 28L15 28L15 29L16 29L16 27L18 27L18 26L19 26L19 24L17 24L17 25L14 25L14 24L16 24L16 23L20 23L20 27L19 27L19 28L22 28L22 27L23 27L23 26L24 26L24 27L26 27L26 26L24 26L24 25L27 25L27 28L24 28L24 29L27 29L27 28L28 28L28 26L29 26L29 23L28 23L28 24L25 24L25 23L27 23L27 22L29 22L29 20L28 20L28 19L27 19L27 16L28 16L28 15L27 15L27 12L28 12L28 11L27 11L27 12L25 12L25 9L26 9L26 8L25 8L25 9L24 9L24 8L23 8L23 9L22 9L22 8L20 8L20 9L19 9L19 10L17 10L17 11L19 11L19 10L20 10L20 9L21 9L21 10L22 10L22 11L21 11L21 12L20 12L20 13L18 13L18 12L16 12L16 10L15 10L15 9L18 9L18 8L15 8L15 9L14 9L14 8L13 8L13 6L14 6L14 7L15 7L15 6L16 6L16 7L17 7L17 6L18 6L18 7L19 7L19 5L20 5L20 3L21 3L21 0L18 0L18 2L19 2L19 5L15 5L15 4L18 4L18 3L16 3L16 2L17 2L17 1L15 1L15 0L13 0L13 1L11 1L11 2L10 2L10 0ZM13 1L13 2L12 2L12 4L13 4L13 5L14 5L14 6L15 6L15 5L14 5L14 4L15 4L15 3L14 3L14 2L15 2L15 1ZM19 1L19 2L20 2L20 1ZM10 3L10 4L11 4L11 3ZM13 3L13 4L14 4L14 3ZM8 5L8 7L9 7L9 5ZM20 6L20 7L21 7L21 6ZM27 8L27 9L28 9L28 10L29 10L29 9L28 9L28 8ZM3 9L3 10L4 10L4 12L5 12L5 15L6 15L6 16L5 16L5 17L4 17L4 18L3 18L3 19L6 19L6 18L5 18L5 17L6 17L6 16L7 16L7 15L8 15L8 14L10 14L10 13L11 13L11 12L10 12L10 13L9 13L9 12L8 12L8 11L9 11L9 10L8 10L8 9L6 9L6 10L8 10L8 11L6 11L6 12L5 12L5 9ZM23 9L23 12L22 12L22 13L23 13L23 14L22 14L22 17L23 17L23 18L24 18L24 19L25 19L25 21L26 21L26 20L27 20L27 19L25 19L25 18L24 18L24 17L26 17L26 16L27 16L27 15L26 15L26 13L25 13L25 12L24 12L24 9ZM2 11L2 12L1 12L1 13L2 13L2 14L3 14L3 13L2 13L2 12L3 12L3 11ZM6 12L6 13L7 13L7 12ZM14 12L14 13L13 13L13 14L14 14L14 15L13 15L13 16L14 16L14 17L15 17L15 16L14 16L14 15L15 15L15 14L14 14L14 13L15 13L15 12ZM23 12L23 13L24 13L24 14L25 14L25 13L24 13L24 12ZM28 13L28 14L29 14L29 13ZM6 14L6 15L7 15L7 14ZM23 15L23 16L24 16L24 15ZM0 16L0 21L1 21L1 16ZM28 17L28 18L29 18L29 17ZM18 20L18 21L15 21L15 22L14 22L14 21L13 21L13 22L14 22L14 23L13 23L13 24L14 24L14 23L15 23L15 22L19 22L19 20ZM9 21L9 22L10 22L10 21ZM21 21L21 24L24 24L24 21ZM22 22L22 23L23 23L23 22ZM8 24L8 29L9 29L9 28L11 28L11 29L13 29L13 28L12 28L12 27L13 27L13 26L11 26L11 25L10 25L10 27L9 27L9 24ZM22 25L22 26L21 26L21 27L22 27L22 26L23 26L23 25ZM0 0L0 7L7 7L7 0ZM1 1L1 6L6 6L6 1ZM2 2L2 5L5 5L5 2ZM22 0L22 7L29 7L29 0ZM23 1L23 6L28 6L28 1ZM24 2L24 5L27 5L27 2ZM0 22L0 29L7 29L7 22ZM1 23L1 28L6 28L6 23ZM2 24L2 27L5 27L5 24Z" fill="#000000"/></g></g></svg>
