<?xml version="1.0" encoding="UTF-8"?>
<svg xmlns="http://www.w3.org/2000/svg" version="1.1" width="200" height="200" viewBox="0 0 200 200"><rect x="0" y="0" width="200" height="200" fill="#ffffff"/><g transform="scale(6.897)"><g transform="translate(0,0)"><path fill-rule="evenodd" d="M10 0L10 1L8 1L8 3L9 3L9 4L8 4L8 8L6 8L6 9L8 9L8 10L5 10L5 9L4 9L4 8L3 8L3 9L2 9L2 8L0 8L0 9L2 9L2 10L1 10L1 14L0 14L0 16L1 16L1 17L2 17L2 20L4 20L4 21L5 21L5 20L4 20L4 19L3 19L3 17L2 17L2 16L1 16L1 14L2 14L2 13L3 13L3 12L5 12L5 15L4 15L4 14L3 14L3 16L5 16L5 17L7 17L7 18L5 18L5 19L7 19L7 20L6 20L6 21L8 21L8 23L9 23L9 25L8 25L8 26L9 26L9 27L8 27L8 29L9 29L9 27L10 27L10 29L15 29L15 28L16 28L16 27L14 27L14 26L16 26L16 25L19 25L19 24L20 24L20 28L19 28L19 27L17 27L17 28L19 28L19 29L22 29L22 26L23 26L23 28L24 28L24 29L25 29L25 28L26 28L26 26L25 26L25 25L26 25L26 24L27 24L27 23L28 23L28 24L29 24L29 23L28 23L28 22L29 22L29 21L27 21L27 20L29 20L29 17L28 17L28 15L29 15L29 14L27 14L27 13L29 13L29 12L28 12L28 10L29 10L29 9L28 9L28 8L26 8L26 9L25 9L25 8L22 8L22 9L21 9L21 8L20 8L20 9L21 9L21 10L19 10L19 9L17 9L17 11L18 11L18 12L17 12L17 13L16 13L16 14L17 14L17 15L14 15L14 14L15 14L15 12L16 12L16 11L15 11L15 9L14 9L14 8L12 8L12 7L13 7L13 5L14 5L14 7L15 7L15 6L16 6L16 8L19 8L19 6L20 6L20 7L21 7L21 4L20 4L20 5L19 5L19 6L18 6L18 5L16 5L16 4L17 4L17 3L18 3L18 4L19 4L19 3L21 3L21 1L20 1L20 0L18 0L18 1L17 1L17 0L15 0L15 2L14 2L14 3L15 3L15 5L14 5L14 4L13 4L13 3L12 3L12 7L11 7L11 4L10 4L10 3L9 3L9 2L11 2L11 0ZM13 0L13 1L14 1L14 0ZM16 1L16 2L15 2L15 3L16 3L16 2L17 2L17 1ZM18 1L18 3L19 3L19 2L20 2L20 1ZM9 5L9 8L8 8L8 9L10 9L10 10L9 10L9 11L8 11L8 12L7 12L7 11L6 11L6 12L7 12L7 13L6 13L6 14L8 14L8 13L9 13L9 14L10 14L10 15L11 15L11 13L10 13L10 12L9 12L9 11L11 11L11 8L10 8L10 5ZM17 6L17 7L18 7L18 6ZM3 9L3 11L5 11L5 10L4 10L4 9ZM24 9L24 10L23 10L23 12L24 12L24 15L22 15L22 14L23 14L23 13L22 13L22 12L18 12L18 15L20 15L20 17L19 17L19 16L18 16L18 17L16 17L16 16L15 16L15 17L14 17L14 16L13 16L13 14L14 14L14 13L13 13L13 12L12 12L12 16L10 16L10 17L11 17L11 18L7 18L7 19L9 19L9 20L8 20L8 21L9 21L9 22L10 22L10 21L12 21L12 22L11 22L11 23L10 23L10 24L11 24L11 25L12 25L12 24L13 24L13 20L14 20L14 21L15 21L15 22L14 22L14 24L15 24L15 23L16 23L16 24L18 24L18 23L16 23L16 22L17 22L17 21L19 21L19 23L20 23L20 21L19 21L19 20L21 20L21 19L20 19L20 17L23 17L23 18L22 18L22 20L25 20L25 23L27 23L27 22L26 22L26 20L27 20L27 18L28 18L28 17L27 17L27 15L26 15L26 13L27 13L27 12L26 12L26 13L25 13L25 11L24 11L24 10L25 10L25 9ZM26 9L26 10L28 10L28 9ZM14 11L14 12L15 12L15 11ZM19 13L19 14L20 14L20 13ZM6 15L6 16L8 16L8 17L9 17L9 16L8 16L8 15ZM21 15L21 16L22 16L22 15ZM24 15L24 16L25 16L25 17L26 17L26 15ZM12 16L12 18L11 18L11 19L12 19L12 20L13 20L13 18L14 18L14 20L15 20L15 18L14 18L14 17L13 17L13 16ZM18 17L18 18L19 18L19 17ZM0 18L0 19L1 19L1 18ZM16 18L16 20L18 20L18 19L17 19L17 18ZM23 18L23 19L24 19L24 18ZM25 18L25 19L26 19L26 18ZM0 20L0 21L1 21L1 20ZM9 20L9 21L10 21L10 20ZM21 21L21 24L24 24L24 21ZM22 22L22 23L23 23L23 22ZM9 25L9 26L10 26L10 25ZM13 25L13 26L14 26L14 25ZM23 25L23 26L24 26L24 25ZM27 25L27 26L28 26L28 27L27 27L27 29L28 29L28 27L29 27L29 26L28 26L28 25ZM11 26L11 28L12 28L12 26ZM0 0L0 7L7 7L7 0ZM1 1L1 6L6 6L6 1ZM2 2L2 5L5 5L5 2ZM22 0L22 7L29 7L29 0ZM23 1L23 6L28 6L28 1ZM24 2L24 5L27 5L27 2ZM0 22L0 29L7 29L7 22ZM1 23L1 28L6 28L6 23ZM2 24L2 27L5 27L5 24Z" fill="#000000"/></g></g></svg>
