<?xml version="1.0" encoding="UTF-8"?>
<svg xmlns="http://www.w3.org/2000/svg" version="1.1" width="200" height="200" viewBox="0 0 200 200"><rect x="0" y="0" width="200" height="200" fill="#ffffff"/><g transform="scale(6.061)"><g transform="translate(0,0)"><path fill-rule="evenodd" d="M8 0L8 1L10 1L10 0ZM14 0L14 1L15 1L15 0ZM19 0L19 1L21 1L21 2L23 2L23 3L22 3L22 5L20 5L20 4L21 4L21 3L20 3L20 4L19 4L19 5L18 5L18 3L19 3L19 2L18 2L18 3L17 3L17 2L15 2L15 5L16 5L16 7L17 7L17 9L19 9L19 10L16 10L16 12L15 12L15 13L13 13L13 14L12 14L12 12L14 12L14 11L15 11L15 9L16 9L16 8L15 8L15 6L14 6L14 5L12 5L12 3L13 3L13 4L14 4L14 2L11 2L11 4L10 4L10 3L9 3L9 2L8 2L8 5L9 5L9 6L8 6L8 7L9 7L9 8L8 8L8 9L9 9L9 10L8 10L8 12L6 12L6 11L7 11L7 10L6 10L6 9L7 9L7 8L6 8L6 9L5 9L5 10L4 10L4 8L0 8L0 10L1 10L1 11L0 11L0 13L1 13L1 14L0 14L0 15L1 15L1 17L0 17L0 22L2 22L2 23L1 23L1 24L0 24L0 25L1 25L1 24L2 24L2 23L4 23L4 22L3 22L3 20L4 20L4 19L5 19L5 18L6 18L6 19L7 19L7 20L5 20L5 22L6 22L6 23L5 23L5 24L4 24L4 25L5 25L5 24L6 24L6 25L7 25L7 24L9 24L9 23L10 23L10 25L11 25L11 28L10 28L10 31L9 31L9 29L8 29L8 33L9 33L9 32L10 32L10 33L11 33L11 32L12 32L12 31L11 31L11 28L12 28L12 29L13 29L13 28L12 28L12 26L13 26L13 27L14 27L14 30L13 30L13 33L15 33L15 31L16 31L16 32L17 32L17 33L18 33L18 31L19 31L19 29L22 29L22 30L20 30L20 31L22 31L22 32L21 32L21 33L22 33L22 32L23 32L23 31L24 31L24 32L25 32L25 33L26 33L26 32L27 32L27 33L31 33L31 32L30 32L30 31L31 31L31 30L30 30L30 29L32 29L32 30L33 30L33 29L32 29L32 28L33 28L33 27L32 27L32 28L31 28L31 26L30 26L30 24L28 24L28 20L27 20L27 19L26 19L26 20L24 20L24 19L23 19L23 18L24 18L24 17L25 17L25 16L26 16L26 18L27 18L27 17L28 17L28 18L29 18L29 21L30 21L30 23L31 23L31 24L32 24L32 25L33 25L33 24L32 24L32 23L33 23L33 21L31 21L31 20L30 20L30 18L31 18L31 19L32 19L32 20L33 20L33 19L32 19L32 18L33 18L33 16L31 16L31 14L32 14L32 13L30 13L30 14L27 14L27 16L26 16L26 13L25 13L25 16L24 16L24 15L23 15L23 14L22 14L22 13L24 13L24 12L22 12L22 13L20 13L20 12L21 12L21 11L24 11L24 10L25 10L25 11L26 11L26 10L28 10L28 9L31 9L31 10L29 10L29 11L27 11L27 12L28 12L28 13L29 13L29 11L31 11L31 12L32 12L32 11L33 11L33 8L32 8L32 9L31 9L31 8L28 8L28 9L26 9L26 8L25 8L25 6L24 6L24 8L23 8L23 10L21 10L21 9L22 9L22 8L21 8L21 6L22 6L22 7L23 7L23 4L24 4L24 5L25 5L25 2L24 2L24 0L23 0L23 1L22 1L22 0ZM16 4L16 5L17 5L17 7L18 7L18 5L17 5L17 4ZM10 5L10 6L9 6L9 7L10 7L10 8L9 8L9 9L10 9L10 10L9 10L9 12L8 12L8 13L5 13L5 12L4 12L4 10L3 10L3 9L1 9L1 10L3 10L3 11L2 11L2 12L4 12L4 14L3 14L3 13L2 13L2 14L1 14L1 15L2 15L2 17L1 17L1 18L3 18L3 19L2 19L2 20L1 20L1 21L2 21L2 20L3 20L3 19L4 19L4 17L6 17L6 18L7 18L7 19L8 19L8 20L7 20L7 21L6 21L6 22L7 22L7 23L6 23L6 24L7 24L7 23L8 23L8 21L10 21L10 20L9 20L9 19L11 19L11 20L12 20L12 19L11 19L11 18L12 18L12 17L14 17L14 18L13 18L13 20L14 20L14 21L15 21L15 22L14 22L14 23L11 23L11 22L12 22L12 21L11 21L11 22L10 22L10 23L11 23L11 25L12 25L12 24L13 24L13 26L14 26L14 27L16 27L16 28L15 28L15 29L16 29L16 28L17 28L17 30L18 30L18 29L19 29L19 25L20 25L20 27L21 27L21 26L22 26L22 23L21 23L21 22L18 22L18 20L17 20L17 19L15 19L15 15L16 15L16 16L17 16L17 17L18 17L18 19L19 19L19 20L20 20L20 19L21 19L21 20L22 20L22 22L23 22L23 21L24 21L24 20L22 20L22 19L21 19L21 18L20 18L20 17L21 17L21 14L20 14L20 15L19 15L19 14L18 14L18 15L17 15L17 13L16 13L16 14L15 14L15 15L14 15L14 14L13 14L13 15L14 15L14 16L12 16L12 14L11 14L11 16L12 16L12 17L10 17L10 14L9 14L9 12L10 12L10 13L11 13L11 11L14 11L14 10L13 10L13 9L15 9L15 8L14 8L14 6L13 6L13 7L12 7L12 5ZM10 6L10 7L11 7L11 8L12 8L12 7L11 7L11 6ZM19 6L19 8L20 8L20 9L21 9L21 8L20 8L20 6ZM24 8L24 9L25 9L25 10L26 10L26 9L25 9L25 8ZM5 10L5 11L6 11L6 10ZM19 10L19 11L17 11L17 12L18 12L18 13L19 13L19 12L20 12L20 11L21 11L21 10ZM31 10L31 11L32 11L32 10ZM2 14L2 15L3 15L3 14ZM5 14L5 15L4 15L4 16L6 16L6 17L7 17L7 16L8 16L8 17L9 17L9 18L8 18L8 19L9 19L9 18L10 18L10 17L9 17L9 16L8 16L8 15L9 15L9 14L8 14L8 15L7 15L7 14ZM6 15L6 16L7 16L7 15ZM28 15L28 16L30 16L30 15ZM22 16L22 17L23 17L23 16ZM31 17L31 18L32 18L32 17ZM26 20L26 21L25 21L25 22L26 22L26 23L25 23L25 24L27 24L27 22L26 22L26 21L27 21L27 20ZM16 22L16 23L15 23L15 24L14 24L14 26L16 26L16 27L17 27L17 26L16 26L16 25L17 25L17 23L18 23L18 24L20 24L20 23L18 23L18 22ZM23 23L23 24L24 24L24 23ZM8 25L8 26L9 26L9 25ZM25 25L25 28L28 28L28 25ZM26 26L26 27L27 27L27 26ZM29 26L29 27L30 27L30 26ZM22 27L22 28L24 28L24 27ZM24 29L24 30L25 30L25 29ZM26 29L26 30L28 30L28 31L30 31L30 30L29 30L29 29ZM10 31L10 32L11 32L11 31ZM32 31L32 32L33 32L33 31ZM19 32L19 33L20 33L20 32ZM0 0L0 7L7 7L7 0ZM1 1L1 6L6 6L6 1ZM2 2L2 5L5 5L5 2ZM26 0L26 7L33 7L33 0ZM27 1L27 6L32 6L32 1ZM28 2L28 5L31 5L31 2ZM0 26L0 33L7 33L7 26ZM1 27L1 32L6 32L6 27ZM2 28L2 31L5 31L5 28Z" fill="#000000"/></g></g></svg>
